<svg xmlns="http://www.w3.org/2000/svg" width="58.792" height="47.038" viewBox="0 0 58.792 47.038">
  <g id="Group_1009" data-name="Group 1009" transform="translate(29.539 -6.349) rotate(45)">
    <path id="Path_3414" data-name="Path 3414" d="M40.011,14.1,27.745,1.83,27.155,5.2l-2.22,12.534q.021,0,0,.042a1.7,1.7,0,0,1-.155.45,1.34,1.34,0,0,1-.745.618.771.771,0,0,1-.239.07L11.15,21.038l-3.4.562L20.129,33.979a1.417,1.417,0,0,0,.984.407,1.451,1.451,0,0,0,1-.407l17.9-17.9A1.4,1.4,0,0,0,40.011,14.1Z" transform="translate(1.735 -1.043)" fill="#354ea1"/>
    <path id="Path_3415" data-name="Path 3415" d="M22.495,16.53,24.35,6.075l.843-4.805c-.014,0-.028.014-.042.028L7.39,19.059l4.777-.8Z" transform="translate(1.589 -1.27)" fill="#354ea1"/>
    <path id="Path_3416" data-name="Path 3416" d="M14.639,21.412a1.4,1.4,0,0,0-1.987,0L1.412,32.653A1.4,1.4,0,1,0,3.4,34.639L14.639,23.4A1.4,1.4,0,0,0,14.639,21.412Z" transform="translate(-1 6.723)" fill="#354ea1"/>
    <path id="Path_3417" data-name="Path 3417" d="M4.405,26.431a1.4,1.4,0,0,0,.993-.412l5.62-5.62a1.405,1.405,0,1,0-1.987-1.987l-5.62,5.62a1.405,1.405,0,0,0,.994,2.4Z" transform="translate(-0.19 5.508)" fill="#354ea1"/>
    <path id="Path_3418" data-name="Path 3418" d="M14.032,23.412l-5.62,5.62A1.4,1.4,0,1,0,10.4,31.019l5.62-5.62a1.4,1.4,0,1,0-1.987-1.987Z" transform="translate(1.836 7.533)" fill="#354ea1"/>
  </g>
</svg>
